HIERARCHY
ROOT Hips
{
 OFFSET 0.000000 0.000000 0.000000
 CHANNELS 6 Xposition Yposition Zposition Yrotation Xrotation Zrotation
 JOINT Chest
 {
  OFFSET 0.000000 10.383400 0.001500
  CHANNELS 3 Yrotation Xrotation Zrotation
  JOINT Chest2
  {
   OFFSET 0.000000 10.418200 -0.003100
   CHANNELS 3 Yrotation Xrotation Zrotation
   JOINT Chest3
   {
    OFFSET 0.000000 10.375100 0.000000
    CHANNELS 3 Yrotation Xrotation Zrotation
    JOINT Chest4
    {
     OFFSET 0.000000 10.364600 0.000000
     CHANNELS 3 Yrotation Xrotation Zrotation
     JOINT Neck
     {
      OFFSET 0.000000 15.642200 0.000000
      CHANNELS 3 Yrotation Xrotation Zrotation
      JOINT Head
      {
       OFFSET 0.000000 9.697300 -0.006500
       CHANNELS 3 Yrotation Xrotation Zrotation
       End Site
       {
        OFFSET 0.000000 18.492200 -0.003400
       }
      }
     }
     JOINT RightCollar
     {
      OFFSET -3.166800 10.349300 0.000000
      CHANNELS 3 Yrotation Xrotation Zrotation
      JOINT RightShoulder
      {
       OFFSET -14.729700 0.000000 0.000000
       CHANNELS 3 Yrotation Xrotation Zrotation
       JOINT RightElbow
       {
        OFFSET 0.000000 -32.224300 0.000000
        CHANNELS 3 Yrotation Xrotation Zrotation
        JOINT RightWrist
        {
         OFFSET 0.000000 -26.084100 0.000000
         CHANNELS 3 Yrotation Xrotation Zrotation
         End Site
         {
          OFFSET 0.000000 -19.319400 0.000000
         }
        }
       }
      }
     }
     JOINT LeftCollar
     {
      OFFSET 3.166800 10.349300 0.000000
      CHANNELS 3 Yrotation Xrotation Zrotation
      JOINT LeftShoulder
      {
       OFFSET 14.729700 0.000000 0.000000
       CHANNELS 3 Yrotation Xrotation Zrotation
       JOINT LeftElbow
       {
        OFFSET 0.000000 -32.224300 0.000000
        CHANNELS 3 Yrotation Xrotation Zrotation
        JOINT LeftWrist
        {
         OFFSET 0.000000 -26.084100 0.000000
         CHANNELS 3 Yrotation Xrotation Zrotation
         End Site
         {
          OFFSET 0.000000 -19.319400 0.000000
         }
        }
       }
      }
     }
    }
   }
  }
 }
 JOINT RightHip
 {
  OFFSET -8.428900 -0.007500 -0.000800
  CHANNELS 3 Yrotation Xrotation Zrotation
  JOINT RightKnee
  {
   OFFSET 0.000000 -43.834600 0.000700
   CHANNELS 3 Yrotation Xrotation Zrotation
   JOINT RightAnkle
   {
    OFFSET 0.000000 -42.757000 0.001200
    CHANNELS 3 Yrotation Xrotation Zrotation
    JOINT RightToe
    {
     OFFSET 0.000000 -6.946900 15.649300
     CHANNELS 3 Yrotation Xrotation Zrotation
     End Site
     {
      OFFSET 0.000000 -1.580800 6.825800
     }
    }
   }
  }
 }
 JOINT LeftHip
 {
  OFFSET 8.428900 -0.007500 -0.000800
  CHANNELS 3 Yrotation Xrotation Zrotation
  JOINT LeftKnee
  {
   OFFSET 0.000000 -43.834600 0.000700
   CHANNELS 3 Yrotation Xrotation Zrotation
   JOINT LeftAnkle
   {
    OFFSET 0.000000 -42.757000 0.001200
    CHANNELS 3 Yrotation Xrotation Zrotation
    JOINT LeftToe
    {
     OFFSET 0.000000 -6.946900 15.649300
     CHANNELS 3 Yrotation Xrotation Zrotation
     End Site
     {
      OFFSET 0.000000 -1.580800 6.825800
     }
    }
   }
  }
 }
}
MOTION
Frames: 9
Frame Time: 0.008333
127.190366 127.211509 17.317098 -11.145013 -35.071376 -3.655349 -4.165249 20.689151 2.405584 -0.586530 2.732487 0.406275 -0.951816 4.461408 0.646202 -3.571742 17.631438 2.144431 4.316802 13.413925 -2.195422 9.024116 -10.577824 -5.852869 -10.411878 -7.301764 -12.401018 -12.594656 -2.729597 5.027090 -77.850389 -15.598859 53.123875 -14.497639 -6.205954 2.574486 0.807010 -6.834962 2.020749 15.054738 -5.176309 -0.698999 57.827351 -19.345534 -45.659334 21.911341 -14.694672 9.806425 -3.314668 -35.400949 -5.602323 -38.004465 76.668143 -36.535667 1.915288 2.708693 8.491658 0.001490 0.000196 0.000661 -9.529537 -31.867739 -6.917874 8.140547 70.950119 6.371484 -11.075346 9.698303 -6.119452 0.000997 -0.002316 0.000443
127.189898 127.210011 17.315935 -11.153316 -35.050766 -3.661638 -4.161982 20.668128 2.411999 -0.585652 2.731611 0.406226 -0.958916 4.454691 0.640453 -3.608160 17.599888 2.121128 4.353637 13.449949 -2.182614 9.024522 -10.536575 -5.848662 -10.408107 -7.244289 -12.386958 -12.587529 -2.719714 5.025165 -77.866689 -15.586280 53.067815 -14.490500 -6.216086 2.545085 0.802516 -6.780906 2.002892 14.989486 -5.173669 -0.781073 57.826544 -19.312844 -45.572941 21.916538 -14.715712 9.845056 -3.308424 -35.419861 -5.579333 -38.062027 76.652642 -36.596071 1.910945 2.710384 8.497764 0.007322 0.002775 0.003250 -9.524835 -31.876620 -6.915573 8.152859 70.946659 6.395869 -11.065008 9.662147 -6.119178 0.001604 -0.002660 0.000712
127.190898 127.209599 17.316662 -11.160375 -35.040950 -3.658281 -4.164470 20.656632 2.405651 -0.593989 2.726541 0.399974 -0.960097 4.449575 0.638517 -3.602156 17.600827 2.122604 4.324692 13.441166 -2.190170 9.059418 -10.504562 -5.839530 -10.415273 -7.224827 -12.380721 -12.602897 -2.701253 5.018256 -77.882427 -15.573340 53.018106 -14.485040 -6.232001 2.502611 0.783028 -6.761947 1.981124 14.907685 -5.172372 -0.870632 57.820538 -19.283596 -45.486386 21.920162 -14.730117 9.891830 -3.291916 -35.428142 -5.572437 -38.135392 76.632196 -36.692440 1.931903 2.711693 8.534830 -0.000452 0.001341 -0.000201 -9.515726 -31.871959 -6.928563 8.132319 70.941624 6.396115 -11.061881 9.605310 -6.122988 0.003584 -0.004868 0.001591
127.191248 127.209512 17.317466 -11.172812 -35.034219 -3.655331 -4.171745 20.644359 2.394611 -0.594749 2.722910 0.398544 -0.961254 4.444082 0.636068 -3.594806 17.603991 2.123374 4.326254 13.444760 -2.188019 9.065415 -10.478283 -5.831234 -10.420608 -7.204134 -12.374021 -12.706578 -2.630415 4.991738 -77.798069 -15.552709 53.059878 -14.491744 -6.278475 2.411021 0.768584 -6.744861 1.964262 14.826256 -5.172139 -0.959990 57.806894 -19.259267 -45.406558 21.919252 -14.740777 9.951516 -3.268341 -35.434050 -5.568486 -38.183488 76.619733 -36.745466 1.932234 2.708068 8.556525 -0.003127 -0.001342 -0.001388 -9.498840 -31.874283 -6.943796 8.129305 70.946609 6.414935 -11.046854 9.586417 -6.128873 0.004369 -0.002978 0.001939
127.190786 127.209563 17.318037 -11.184719 -35.028891 -3.657813 -4.175991 20.632579 2.389936 -0.613281 2.709044 0.387129 -0.942342 4.447661 0.643395 -3.599191 17.592845 2.117438 4.346117 13.471515 -2.178786 9.059232 -10.455088 -5.823070 -10.443753 -7.165257 -12.364732 -12.747417 -2.593453 4.974699 -77.749539 -15.538635 53.076906 -14.494525 -6.330252 2.310040 0.764981 -6.711078 1.952769 14.743512 -5.175486 -1.044318 57.791716 -19.235433 -45.335784 21.909443 -14.747458 10.017635 -3.243771 -35.439912 -5.562413 -38.221895 76.610604 -36.781165 1.930214 2.710747 8.572593 -0.003213 -0.003800 -0.001426 -9.487016 -31.872342 -6.961311 8.091037 70.954485 6.412055 -11.008721 9.545720 -6.140798 0.005827 -0.002513 0.002587
127.190514 127.209514 17.318379 -11.193643 -35.023436 -3.661983 -4.183816 20.620033 2.384593 -0.605364 2.712856 0.391249 -0.952476 4.436893 0.636614 -3.637567 17.569320 2.099164 4.384112 13.501705 -2.171260 9.068943 -10.431003 -5.816871 -10.433017 -7.117392 -12.354192 -12.764371 -2.571716 4.964606 -77.733043 -15.531301 53.052737 -14.484037 -6.370270 2.235796 0.810092 -6.667795 1.953695 14.647421 -5.180012 -1.131939 57.775906 -19.208875 -45.272399 21.893586 -14.750561 10.084044 -3.225605 -35.446475 -5.557057 -38.247946 76.607254 -36.799301 1.922268 2.708379 8.579666 0.001306 -0.004723 0.000580 -9.478313 -31.869357 -6.965617 8.107319 70.953455 6.446450 -11.022760 9.510316 -6.144925 0.003244 -0.004501 0.001440
127.191046 127.209753 17.319314 -11.198717 -35.022068 -3.664151 -4.197925 20.615157 2.373901 -0.596119 2.714170 0.395485 -0.963739 4.430369 0.631299 -3.629758 17.572475 2.101478 4.377291 13.502686 -2.171920 9.084418 -10.417251 -5.816827 -10.462302 -7.099372 -12.349794 -12.782238 -2.558257 4.961192 -77.727066 -15.539804 53.026930 -14.467601 -6.389394 2.171280 0.816346 -6.657527 1.947070 14.551201 -5.185007 -1.212375 57.754322 -19.182610 -45.219910 21.877571 -14.752608 10.149795 -3.219095 -35.448746 -5.551501 -38.264542 76.600545 -36.826790 1.927143 2.708868 8.598507 -0.001171 -0.004873 -0.000520 -9.466848 -31.865014 -6.973389 8.115819 70.953611 6.470923 -11.035558 9.493894 -6.149293 0.001704 -0.003393 0.000756
127.191999 127.209999 17.320351 -11.203934 -35.021930 -3.664486 -4.235287 20.607430 2.346893 -0.599251 2.711620 0.394821 -0.968989 4.426396 0.630021 -3.593874 17.583432 2.107077 4.367951 13.505925 -2.171859 9.102907 -10.405379 -5.819556 -10.503492 -7.080809 -12.351648 -12.773380 -2.558131 4.968275 -77.723836 -15.549655 52.999105 -14.448412 -6.408380 2.121003 0.815080 -6.650447 1.935137 14.467461 -5.186996 -1.278712 57.725358 -19.157328 -45.179558 21.864713 -14.755409 10.206891 -3.190408 -35.450803 -5.551831 -38.298987 76.589902 -36.862009 1.923166 2.716735 8.621440 -0.001191 -0.007293 -0.000529 -9.446496 -31.859152 -6.989464 8.112363 70.955700 6.494010 -11.044675 9.477751 -6.155516 -0.000286 -0.000312 -0.000127
127.191574 127.209896 17.320441 -11.210775 -35.018504 -3.672751 -4.251443 20.597591 2.344755 -0.601199 2.709434 0.394208 -0.972227 4.422983 0.629054 -3.603381 17.587237 2.104190 4.334224 13.503431 -2.167683 9.128859 -10.363740 -5.825016 -10.480405 -7.067793 -12.359117 -12.773008 -2.556919 4.968963 -77.781976 -15.568508 52.927744 -14.416597 -6.380881 2.126488 0.838928 -6.639287 1.917138 14.410025 -5.189518 -1.321468 57.670045 -19.116270 -45.158916 21.858215 -14.757946 10.245798 -3.141432 -35.451370 -5.540090 -38.389376 76.572282 -36.934893 1.903970 2.711620 8.646457 0.007164 -0.007767 0.003180 -9.442688 -31.859663 -6.980285 8.115629 70.959253 6.506455 -11.053607 9.470976 -6.158184 -0.000116 0.000287 -0.000051
